<mxfile host="app.diagrams.net" agent="Mozilla/5.0 (Windows NT 10.0; Win64; x64) AppleWebKit/537.36 (KHTML, like Gecko) Chrome/130.0.0.0 Safari/537.36 OPR/115.0.0.0" version="24.8.3">
  <diagram name="Page-1" id="Ahv04ZBHPoDUldVcqKd-">
    <mxGraphModel dx="794" dy="429" grid="1" gridSize="10" guides="1" tooltips="1" connect="1" arrows="1" fold="1" page="1" pageScale="1" pageWidth="850" pageHeight="1100" math="0" shadow="0">
      <root>
        <mxCell id="0" />
        <mxCell id="1" parent="0" />
        <mxCell id="5R2oOfKaPm3UJCzG3l3G-1" value="Driver" style="shape=folder;fontStyle=1;spacingTop=10;tabWidth=40;tabHeight=14;tabPosition=left;html=1;whiteSpace=wrap;" vertex="1" parent="1">
          <mxGeometry x="390" y="160" width="70" height="50" as="geometry" />
        </mxCell>
        <mxCell id="5R2oOfKaPm3UJCzG3l3G-2" value="Query Manager" style="shape=folder;fontStyle=1;spacingTop=10;tabWidth=40;tabHeight=14;tabPosition=left;html=1;whiteSpace=wrap;" vertex="1" parent="1">
          <mxGeometry x="390" y="280" width="70" height="50" as="geometry" />
        </mxCell>
        <mxCell id="5R2oOfKaPm3UJCzG3l3G-3" value="Model" style="shape=folder;fontStyle=1;spacingTop=10;tabWidth=40;tabHeight=14;tabPosition=left;html=1;whiteSpace=wrap;" vertex="1" parent="1">
          <mxGeometry x="390" y="400" width="70" height="50" as="geometry" />
        </mxCell>
        <mxCell id="5R2oOfKaPm3UJCzG3l3G-6" style="edgeStyle=orthogonalEdgeStyle;rounded=0;orthogonalLoop=1;jettySize=auto;html=1;entryX=0.5;entryY=1;entryDx=0;entryDy=0;entryPerimeter=0;endArrow=none;endFill=0;" edge="1" parent="1" source="5R2oOfKaPm3UJCzG3l3G-2" target="5R2oOfKaPm3UJCzG3l3G-1">
          <mxGeometry relative="1" as="geometry" />
        </mxCell>
        <mxCell id="5R2oOfKaPm3UJCzG3l3G-7" style="edgeStyle=orthogonalEdgeStyle;rounded=0;orthogonalLoop=1;jettySize=auto;html=1;entryX=0.5;entryY=1;entryDx=0;entryDy=0;entryPerimeter=0;endArrow=none;endFill=0;" edge="1" parent="1" source="5R2oOfKaPm3UJCzG3l3G-3" target="5R2oOfKaPm3UJCzG3l3G-2">
          <mxGeometry relative="1" as="geometry" />
        </mxCell>
      </root>
    </mxGraphModel>
  </diagram>
</mxfile>
